<?xml version="1.0" encoding="utf-8"?>
<!-- Generator: Adobe Illustrator 27.9.0, SVG Export Plug-In . SVG Version: 6.00 Build 0)  -->
<svg version="1.1" id="Layer_1" xmlns="http://www.w3.org/2000/svg" xmlns:xlink="http://www.w3.org/1999/xlink" x="0px" y="0px"
	 viewBox="0 0 2381.1 2381.1" style="enable-background:new 0 0 2381.1 2381.1;" xml:space="preserve">
<g>
	<path d="M1089.4,1931.6h-45.7c6.7-4.8,12.8-9.3,18.3-13.5c5.5-4.2,10.3-8.4,14.3-12.5c4-4.2,7.2-8.4,9.4-12.7
		c2.3-4.3,3.4-8.9,3.4-13.9c0-2.8-0.4-5.5-1.2-8.1c-0.8-2.6-2.1-5.1-4-7.4c-6.1-7.9-16.7-11.8-31.6-11.8c-2,0-4.5,0.1-7.4,0.3
		c-2.9,0.2-5.9,0.7-9,1.5c-3.1,0.8-6.1,1.9-9,3.3c-2.9,1.4-5.4,3.4-7.4,5.9c-1.7,2-3,4-3.9,5.9c-0.9,1.9-1.6,3.7-2.1,5.3
		c-0.5,1.6-0.7,3.1-0.8,4.4c-0.1,1.3-0.1,2.3-0.1,3.1h27c0.1-0.6,0.2-1.6,0.4-2.8c0.2-1.2,0.7-2.5,1.5-3.7c0.8-1.2,1.9-2.3,3.4-3.3
		c1.5-0.9,3.5-1.4,6.1-1.4c0.8,0,1.8,0.1,3,0.3c1.2,0.2,2.4,0.6,3.5,1.3c1.1,0.7,2,1.7,2.8,3c0.7,1.3,1.1,3,1.1,5.1
		c0,2.2-0.3,4.2-1,6c-0.7,1.8-1.5,3.4-2.4,4.9c-1.8,2.5-4.2,5.2-7.3,8.2c-3.1,3-6.7,6.2-10.8,9.6c-4.1,3.4-8.6,6.9-13.6,10.7
		c-4.9,3.7-10.1,7.6-15.6,11.6v20h78.7V1931.6z"/>
	<path d="M1178.5,1870.8c-1.4-2.4-2.9-4.5-4.4-6.4c-1-1.3-2.3-2.7-4-4.2c-1.6-1.5-3.7-2.8-6.1-4.1c-2.4-1.2-5.4-2.3-8.7-3
		c-3.4-0.8-7.3-1.2-11.9-1.2c-2.2,0-4.6,0.2-7.1,0.5c-2.5,0.3-5.1,0.9-7.8,1.9c-2.6,0.9-5.2,2.2-7.7,3.7c-2.5,1.6-4.8,3.7-6.9,6.2
		c-2.5,3-4.5,6.2-6,9.6c-1.5,3.5-2.7,6.9-3.5,10.4c-0.8,3.5-1.3,6.7-1.6,9.8c-0.3,3.1-0.4,5.8-0.4,8.1c0,2.4,0.1,5.2,0.4,8.4
		c0.3,3.2,0.8,6.5,1.7,10c0.8,3.5,2,7,3.6,10.5c1.6,3.5,3.7,6.8,6.4,9.8c3.6,4.2,8,7.1,13.2,8.9c5.2,1.8,10.6,2.7,16.1,2.7
		c7.7,0,14.2-1.3,19.5-4c5.3-2.7,9.6-6.3,12.9-11c3.3-4.6,5.6-10,7.1-16.1c1.4-6.1,2.1-12.6,2.1-19.5c0-4.8-0.3-9.1-0.9-12.9
		c-0.6-3.8-1.4-7.2-2.4-10.3C1181.1,1875.8,1179.9,1873.1,1178.5,1870.8z M1158.4,1907c0,2-0.2,4.3-0.5,6.9c-0.3,2.6-0.7,5.2-1.2,8
		c-0.6,2.7-1.3,5-2.4,6.9c-1,1.8-2.5,3.3-4.5,4.2c-2,1-4,1.5-6.2,1.5c-2.9,0-5.2-0.7-7-2.1c-1.8-1.4-3.2-3.4-4.3-6.1
		c-1.1-2.7-1.8-6-2.2-9.9c-0.4-3.9-0.6-8.5-0.6-13.7c0-7.3,0.4-13.1,1.2-17.4c0.8-4.3,1.8-7.6,3.2-9.8c1.3-2.2,2.9-3.6,4.6-4.3
		c1.8-0.6,3.6-1,5.5-1c2.2,0,4,0.3,5.5,1c1.4,0.7,2.6,1.5,3.5,2.6c0.9,1,1.6,2.1,2,3.3c0.4,1.2,0.8,2.1,1,3c0.5,1.8,0.9,3.7,1.2,5.9
		c0.3,2.2,0.6,4.3,0.8,6.5c0.2,2.2,0.3,4.2,0.3,6.1c0,1.9,0.1,3.4,0.1,4.6C1158.5,1903.7,1158.5,1905,1158.4,1907z"/>
	<path d="M1242.8,1890.7c-1.8,2.5-4.2,5.2-7.3,8.2c-3.1,3-6.7,6.2-10.8,9.6c-4.1,3.4-8.6,6.9-13.6,10.7c-4.9,3.7-10.1,7.6-15.6,11.6
		v20h78.7v-19.1h-45.7c6.7-4.8,12.8-9.3,18.3-13.5c5.5-4.2,10.3-8.4,14.3-12.5c4-4.2,7.2-8.4,9.4-12.7c2.3-4.3,3.4-8.9,3.4-13.9
		c0-2.8-0.4-5.5-1.2-8.1c-0.8-2.6-2.1-5.1-4-7.4c-6.1-7.9-16.7-11.8-31.6-11.8c-2,0-4.5,0.1-7.4,0.3c-2.9,0.2-5.9,0.7-9,1.5
		c-3.1,0.8-6.1,1.9-9,3.3c-2.9,1.4-5.4,3.4-7.4,5.9c-1.7,2-3,4-3.9,5.9c-0.9,1.9-1.6,3.7-2.1,5.3c-0.5,1.6-0.7,3.1-0.8,4.4
		c-0.1,1.3-0.1,2.3-0.1,3.1h27c0.1-0.6,0.2-1.6,0.4-2.8c0.2-1.2,0.7-2.5,1.5-3.7c0.8-1.2,1.9-2.3,3.4-3.3c1.5-0.9,3.5-1.4,6.1-1.4
		c0.8,0,1.8,0.1,3,0.3c1.2,0.2,2.4,0.6,3.5,1.3c1.1,0.7,2,1.7,2.8,3c0.7,1.3,1.1,3,1.1,5.1c0,2.2-0.3,4.2-1,6
		C1244.5,1887.6,1243.7,1889.2,1242.8,1890.7z"/>
	<path d="M1339.3,1930.5c-1.2,1.2-2.7,2.2-4.6,3c-1.9,0.8-4.3,1.2-7.2,1.2c-5.2,0-8.8-1.2-10.8-3.5c-2-2.3-3.1-5-3.2-8.2h-26.9
		c0.1,1.1,0.2,2.4,0.3,3.8c0.1,1.4,0.4,2.9,0.9,4.5c0.5,1.6,1.2,3.2,2.1,4.9c1,1.7,2.3,3.4,3.9,5.2c3.7,3.9,8.2,6.7,13.7,8.5
		c5.4,1.8,12.1,2.6,20.2,2.6c4.7,0,8.8-0.3,12.3-0.8c3.5-0.5,6.4-1.2,8.9-2c2.4-0.8,4.5-1.7,6.1-2.7c1.6-1,3-1.9,4.2-2.7
		c4-2.9,6.7-6.1,8-9.7c1.4-3.6,2.1-7.2,2.1-10.7c0-5.2-1-9.3-3-12.3c-2-3-4.4-5.4-7.1-6.9c-2.7-1.6-5.4-2.6-8.1-3.1
		c-2.7-0.5-4.7-0.9-6-1v-0.7c3.3-0.4,6.4-1.2,9.1-2.6c2.7-1.3,5.1-3,7-5.1c1.9-2,3.5-4.3,4.6-6.9c1.1-2.6,1.7-5.4,1.7-8.3
		c0-3.6-0.8-7-2.5-10.1c-1.7-3.1-4.1-5.8-7.3-8.1c-3.2-2.3-7.3-4-12.1-5.3c-4.8-1.3-10.3-1.9-16.5-1.9c-5.5,0-10.6,0.6-15.4,1.7
		c-4.8,1.1-9,2.8-12.6,5.2c-3.6,2.4-6.5,5.4-8.6,9c-2.1,3.7-3.3,8-3.5,13h26.8c0.1-2.3,0.6-4.2,1.5-5.7c0.9-1.5,1.9-2.6,3.1-3.4
		c1.2-0.8,2.5-1.3,3.9-1.6c1.4-0.3,2.7-0.4,3.9-0.4c3.9,0,7,1,9.4,2.9c2.4,1.9,3.6,4.6,3.6,7.9c0,0.3-0.1,1-0.2,2.1
		c-0.1,1.2-0.6,2.4-1.3,3.7c-0.7,1.3-1.9,2.6-3.5,3.9c-1.6,1.2-3.9,2.1-6.9,2.4c-2.9,0.5-5.5,0.7-8,0.6c-2.5,0-4.7-0.1-6.5-0.2v17.2
		c0.9-0.1,2-0.2,3.3-0.2c1.3,0,2.7-0.1,4.3-0.1c1.4,0,3.2,0.1,5.5,0.2c2.3,0.1,4.5,0.6,6.7,1.3c2.2,0.7,4.1,2,5.7,3.7
		c1.6,1.7,2.4,4.1,2.4,7.1c0,1.5-0.2,3-0.7,4.5C1341.3,1927.9,1340.5,1929.3,1339.3,1930.5z"/>
	<path d="M827.8,331.2c115-48.6,237.1-73.3,363.1-73.3c125.9,0,248.1,24.7,363.1,73.3c109.4,46.3,207.8,112.2,292.6,196h57
		c-7.9-8.5-15.9-16.8-24.1-25c-89.4-89.4-193.5-159.6-309.5-208.7c-120-50.8-247.6-76.5-379-76.5c-131.4,0-258.9,25.7-379,76.5
		c-115.9,49-220.1,119.2-309.5,208.7c-8.2,8.2-16.3,16.5-24.1,25h57C620.1,443.4,718.5,377.4,827.8,331.2z"/>
	<path d="M1850.5,1850.2c-85.7,85.7-185.4,152.9-296.5,199.9c-115,48.6-237.1,73.3-363.1,73.3c-125.9,0-248.1-24.7-363.1-73.3
		c-111.1-47-210.8-114.2-296.5-199.9c-8-8-15.8-16.1-23.5-24.3H453c15.8,18.3,32.2,36,49.4,53.2c89.4,89.4,193.5,159.6,309.5,208.7
		c120.1,50.8,247.6,76.5,379,76.5c131.4,0,258.9-25.7,379-76.5c115.9-49,220.1-119.2,309.5-208.7c17.2-17.2,33.7-34.9,49.4-53.2
		H1874C1866.3,1834.2,1858.5,1842.3,1850.5,1850.2z"/>
	<polygon points="1704,871 1808.9,871 1704,801.7 1808.9,801.7 1704,732.4 1808.9,732.4 1704,663.1 1803,663.1 1803,641.7 
		1632.8,641.7 1737.8,711 1632.8,711 1737.8,780.3 1632.8,780.3 1737.8,849.7 1632.8,849.7 1737.8,919 1636.6,919 1636.6,940.3 
		1808.9,940.3 	"/>
	<polygon points="2036.7,641.7 1866.6,641.7 1971.5,711 1866.6,711 1971.5,780.3 1866.6,780.3 1971.5,849.7 1866.6,849.7 
		1971.5,919 1870.4,919 1870.4,940.3 2042.6,940.3 1937.7,871 2042.6,871 1937.7,801.7 2042.6,801.7 1937.7,732.4 2042.6,732.4 
		1937.7,663.1 2036.7,663.1 	"/>
	<polygon points="2205.3,919 2104.1,919 2104.1,940.3 2276.4,940.3 2171.5,871 2276.4,871 2171.5,801.7 2276.4,801.7 2171.5,732.4 
		2276.4,732.4 2171.5,663.1 2270.5,663.1 2270.5,641.7 2100.3,641.7 2205.3,711 2100.3,711 2205.3,780.3 2100.3,780.3 2205.3,849.7 
		2100.3,849.7 	"/>
	<rect x="122.9" y="1005.9" width="83.8" height="293.8"/>
	<path d="M469.5,1299.6v-123.7c0-28.1,0-85-74.9-85c-42.3,0-58.6,20.3-67.9,35.8l-0.8-31.3h-76.5l2,43.5v160.7h76.1v-117.2
		c0-7.3,0-43.1,34.2-43.1c31.3,0,31.3,28.9,31.3,43.1v117.2H469.5z"/>
	<path d="M732.4,1175.9c0-28.1,0-85-74.9-85c-42.3,0-58.6,20.3-67.9,35.8l-0.8-31.3h-76.5l2,43.5v160.7h76.1v-117.2
		c0-7.3,0-43.1,34.2-43.1c31.3,0,31.3,28.9,31.3,43.1v117.2h76.5V1175.9z"/>
	<path d="M766.5,1196.7c0,24.8,5.7,55.3,29.3,77.7c19.9,19.1,49.2,30.1,94.4,30.1c41.9,0,67.1-12.6,84.2-29.3
		c21.2-21.2,29.7-51.3,29.7-81c0-72.4-51.7-105.8-118-105.8C805.2,1088.5,766.5,1134,766.5,1196.7z M925.2,1197.1
		c0,28.5-6.5,64.7-39.9,64.7c-6.9,0-20.7-0.8-29.7-16.3c-8.5-15.1-9.8-35-9.8-48.4c0-30.5,6.5-65.1,40.3-65.1
		C916.7,1132,925.2,1161.7,925.2,1197.1z"/>
	<polygon points="1087.1,1299.6 1170.6,1299.6 1247.9,1095.4 1175.8,1095.4 1132.3,1238.6 1091.6,1095.4 1009.4,1095.4 	"/>
	<path d="M1461.5,1260.6v-95.2c0-22-4.9-41.1-17.9-53.7c-21.6-21.2-60.6-23.6-78.9-23.6c-37,0-68.8,9.4-84.6,25.6
		c-15.5,15.9-15.5,33.4-15.9,42.7h73.2c-0.4-23.2,13-30.9,27.3-30.9c23.2,0,26,20.3,25.6,42.3c-87.9-3.7-139.6,16.7-139.6,72.4
		c0,36.2,22,63.5,72,63.5c41.9,0,57.8-19.5,67.1-33.4c0,13,0.8,22,2.4,29.3h73.2C1461.9,1279.3,1461.5,1275.2,1461.5,1260.6z
		 M1384.2,1241.4c-7.7,16.3-22,19.5-30.1,19.5c-18.3,0-28.1-12.6-28.1-27.7c0-29.3,31.3-29.7,63.9-30.1
		C1390.3,1211.7,1390.3,1228.4,1384.2,1241.4z"/>
	<path d="M1645,1145v-48.8h-48.4v-61l-73.6,29.3v31.7H1483v48.8h38.7v98.1c0,39.5,12.2,59.8,73.2,59.8c26,0,39.5-2,49.6-3.7v-48
		c-9.4,1.2-13,1.2-19.1,1.2c-29.3,0-29.3-11.4-29.7-36.6V1145H1645z"/>
	<rect x="1677.1" y="1006.7" width="78.1" height="54.5"/>
	<rect x="1677.9" y="1095.4" width="76.5" height="204.3"/>
	<path d="M1821.5,1274.4c19.9,19.1,49.2,30.1,94.4,30.1c41.9,0,67.1-12.6,84.2-29.3c21.2-21.2,29.7-51.3,29.7-81
		c0-72.4-51.7-105.8-118-105.8c-81,0-119.6,45.6-119.6,108.2C1792.2,1221.5,1797.9,1252,1821.5,1274.4z M1911.9,1132
		c30.5,0,39.1,29.7,39.1,65.1c0,28.5-6.5,64.7-39.9,64.7c-6.9,0-20.7-0.8-29.7-16.3c-8.5-15.1-9.8-35-9.8-48.4
		C1871.6,1166.6,1878.1,1132,1911.9,1132z"/>
	<path d="M2208.9,1090.9c-42.3,0-58.6,20.3-67.9,35.8l-0.8-31.3h-76.5l2,43.5v160.7h76.1v-117.2c0-7.3,0-43.1,34.2-43.1
		c31.3,0,31.3,28.9,31.3,43.1v117.2h76.5v-123.7C2283.7,1147.9,2283.7,1090.9,2208.9,1090.9z"/>
	<path d="M835.5,1618.3h116.9l20.2,58.7h91.5l-115.3-292.2H850L734.7,1677h80.9L835.5,1618.3z M895,1441.9h1.2l37.6,122.6h-79.3
		L895,1441.9z"/>
	<polygon points="1344.1,1473.8 1308.1,1617.1 1272.5,1473.8 1187.5,1473.8 1151.5,1617.9 1118.3,1473.8 1040.6,1473.8 1102.6,1677 
		1185.9,1677 1226,1535.4 1263.2,1677 1348.2,1677 1412.1,1473.8 	"/>
	<path d="M1416.2,1617.9c0,36,21.9,63.1,71.6,63.1c41.7,0,57.5-19.4,66.8-33.2c0,12.9,0.8,21.9,2.4,29.1h72.8
		c-3.6-20.2-4-24.3-4-38.8v-94.7c0-21.9-4.9-40.9-17.8-53.4c-21.4-21-60.3-23.5-78.5-23.5c-36.8,0-68.4,9.3-84.2,25.5
		c-15.4,15.8-15.4,33.2-15.8,42.5h72.8c-0.4-23.1,12.9-30.8,27.1-30.8c23.1,0,25.9,20.2,25.5,42.1
		C1467.6,1542.2,1416.2,1562.5,1416.2,1617.9z M1548.9,1619.1c-7.7,16.2-21.8,19.4-29.9,19.4c-18.2,0-27.9-12.5-27.9-27.5
		c0-29.1,31.2-29.5,63.5-29.9C1555,1589.6,1555,1606.2,1548.9,1619.1z"/>
	<path d="M1744.7,1677v-86.2c0-21.9,6.5-54.6,53-54.6c5.3,0,7.3,0.4,16.2,1.2v-65.2c-17.4-0.4-54.2-1.6-71.6,43.7l-1.2-42.1h-74.1
		l2,43.3V1677H1744.7z"/>
	<path d="M2057.1,1384.8h-76.1v112.9c-13.4-14.2-27.9-28.3-61.9-28.3c-25.5,0-48.2,7.7-66.8,27.5c-13.8,15-25.5,35.2-25.5,78.5
		c0,49.8,19.8,106.4,89.8,106.4c44.9,0,60.7-23.1,68.8-34.8l1.6,29.9h72c-1.2-17-2-33.6-2-50.6V1384.8z M1943.4,1636.9
		c-33.6,0-37.6-41.7-37.6-61.1c0-19,4.4-61.9,38.4-61.9c26.7,0,37.6,26.7,37.6,60.7C1981.9,1609.4,1970.9,1636.9,1943.4,1636.9z"/>
	<path d="M2236,1558l-54.2-15c-12.1-3.2-20.6-7.7-20.6-19.4c0-12.5,10.9-17.8,22.7-17.8c12.1,0,17.8,4.5,21,10.9
		c2.8,6.1,2.8,13.8,2.8,19.8h72c-3.2-56.7-49-68.4-92.7-68.4c-29.9,0-54.2,4.9-72,17.4c-13.4,8.9-24.3,25.9-24.3,46.1
		c0,41.7,36.8,51.8,49.4,55l41.3,11.7c17,4.5,28.7,8.5,28.7,22.7c0,8.9-5.7,20.6-23.1,20.6c-12.9,0-19.4-6.1-22.3-12.5
		c-3.2-6.9-3.2-14.6-3.2-18.2h-75.3c-0.8,65.6,58.7,71.6,100,71.6c17.8,0,97.5,0,97.5-68.8C2283.7,1574.2,2255.4,1563.3,2236,1558z"
		/>
	<path d="M1532.5,686.4c0-30-24.4-53.3-53.3-53.3c-28.9,0-53.1,23.3-53.1,53.3c0,29.2,23.6,53.1,53.1,53.1
		C1508.6,739.4,1532.5,715.5,1532.5,686.4z M1432.7,686.4c0-26.5,21.3-46.9,46.4-46.9c25.7,0,46.9,20.8,46.9,46.9
		c0,25.3-20.8,46.4-46.9,46.4C1453.7,732.8,1432.7,711.9,1432.7,686.4z"/>
	<path d="M1503,710.7c-0.2-1-0.3-2.8-0.3-5.5v-3.9c0-4.1-0.6-7.2-1.7-9.2c-1.1-2-3-3.5-5.8-4.6c3.2-1.1,5.6-3,7-5.7
		c1.4-2.7,2.1-5.4,2.1-8.2c0-2.3-0.4-4.4-1.1-6.2c-0.7-1.8-1.7-3.4-2.9-4.9c-1.5-1.8-3.3-3.2-5.5-4.1c-2.2-0.9-5.2-1.4-9.3-1.5
		h-28.1v58.7h12v-23h12c3.4,0,5.7,0.6,7,1.9c1.2,1.2,1.9,3.7,1.9,7.5l0.1,5.5c0,1.7,0.2,3.4,0.5,5.1c0.2,0.8,0.4,1.8,0.8,3.1h13.5
		v-1.5C1504.1,713.4,1503.3,712.2,1503,710.7z M1488.5,681.9c-1.3,0.6-3.3,1-5.9,1h-13.2v-15.8h13.5c2.5,0,4.4,0.3,5.7,1
		c2.2,1.2,3.4,3.6,3.4,7.2C1492,678.6,1490.8,680.8,1488.5,681.9z"/>
	<polygon points="825.5,727.3 826.3,727.3 826.3,940.3 899.8,940.3 899.8,641.6 788.8,641.6 743.5,824.7 742.7,824.7 700.4,641.6 
		586.5,641.6 586.5,940.3 659.9,940.3 659.9,727.3 660.7,727.3 712,940.3 771.3,940.3 	"/>
	<rect x="938.2" y="641.6" width="77.3" height="298.8"/>
	<path d="M1234.4,923.1c16.2-11.5,27.3-28,33.3-49.3c6-21.3,9-48.9,9-82.8c0-33.9-3-61.5-9-82.8c-6-21.4-17.1-37.8-33.3-49.3
		c-16.2-11.5-39-17.3-68.3-17.3h-112.3v298.8h112.3C1195.4,940.3,1218.2,934.6,1234.4,923.1z M1129,878V703.9h26
		c13.9,0,24.3,3.6,31,10.7c6.7,7.1,10.8,16.4,12.4,28c1.6,11.5,2.3,27.7,2.3,48.4c0,20.8-0.8,36.9-2.3,48.5
		c-1.6,11.5-5.7,20.8-12.4,28c-6.7,7.1-17,10.7-31,10.7H1129z"/>
	<rect x="1307.4" y="641.6" width="77.3" height="298.8"/>
	<path d="M163.3,940.3c-0.5-1.7-1-3.4-1.5-5.1c-32.4-114.9-34.5-222.1-5.2-260.8c8.2-10.9,16.4-12.1,21.8-12.1
		c28.1,0,68.7,37.9,107.1,101.4c-27.9,50.3-52,109.5-69.5,171.5c-0.5,1.7-0.9,3.4-1.4,5.1h39.3c14.8-51.3,33.4-97.6,53.4-137.1
		c20.1,39.5,38.6,85.9,53.4,137.1h39.3c-0.5-1.7-0.9-3.4-1.4-5.1c-17.5-62-41.6-121.3-69.5-171.5c38.4-63.5,79-101.4,107.1-101.4
		c5.4,0,13.6,1.3,21.8,12.1c29.3,38.7,27.1,145.9-5.2,260.8c-0.5,1.7-1,3.4-1.5,5.1h39.3c16.8-61,25.7-119.7,25.9-170
		c0.1-37-4.7-87.6-28.3-118.7c-13.5-17.8-31.4-27.1-52-27.1c-27,0-70.3,16.5-123.9,95.3c-1.7,2.5-3.4,5-5.1,7.6
		c-1.7-2.6-3.4-5.1-5.1-7.6c-53.6-78.7-97-95.3-123.9-95.3c-20.6,0-38.6,9.4-52,27.1c-23.6,31.1-28.4,81.7-28.3,118.7
		c0.1,50.3,9.1,109,25.9,170H163.3z"/>
	<path d="M677.6,1456.6c-12.4,0-18.7-7.9-28.7-21.9c-10.3-14.4-23.1-32.3-48.8-32.3c-25.7,0-38.5,17.9-48.8,32.3
		c-10,14-16.3,21.9-28.7,21.9c-12.4,0-18.6-7.9-28.6-21.9c-10.3-14.4-23-32.3-48.8-32.3c-25.7,0-38.5,17.9-48.8,32.3
		c-10,14-16.3,21.9-28.6,21.9c-12.4,0-18.6-7.9-28.6-21.9c-10.3-14.4-23-32.3-48.8-32.3c-25.7,0-38.5,17.9-48.8,32.3
		c-10,14-16.3,21.9-28.6,21.9c-12.4,0-18.6-7.9-28.6-21.9c-10.3-14.4-23-32.3-48.8-32.3c-6.8,0-12.4,5.5-12.4,12.4
		c0,6.8,5.5,12.4,12.4,12.4c12.4,0,18.6,7.9,28.6,21.9c10.3,14.4,23,32.3,48.8,32.3c25.7,0,38.5-17.9,48.8-32.3
		c10-14,16.3-21.9,28.6-21.9c12.4,0,18.6,7.9,28.6,21.9c10.3,14.4,23,32.3,48.8,32.3c25.7,0,38.5-17.9,48.8-32.3
		c10-14,16.3-21.9,28.6-21.9c12.4,0,18.6,7.9,28.6,21.9c10.3,14.4,23,32.3,48.8,32.3c25.7,0,38.5-17.9,48.8-32.3
		c10-14,16.3-21.9,28.7-21.9c12.4,0,18.7,7.9,28.7,21.9c10.3,14.4,23.1,32.3,48.8,32.3c6.8,0,12.4-5.5,12.4-12.4
		S684.4,1456.6,677.6,1456.6z"/>
	<path d="M677.6,1557.5c-12.4,0-18.7-7.9-28.7-21.9c-10.3-14.4-23.1-32.3-48.8-32.3c-25.7,0-38.5,17.9-48.8,32.3
		c-10,14-16.3,21.9-28.7,21.9c-12.4,0-18.6-7.9-28.6-21.9c-10.3-14.4-23-32.3-48.8-32.3c-25.7,0-38.5,17.9-48.8,32.3
		c-10,14-16.3,21.9-28.6,21.9c-12.4,0-18.6-7.9-28.6-21.9c-10.3-14.4-23-32.3-48.8-32.3c-25.7,0-38.5,17.9-48.8,32.3
		c-10,14-16.3,21.9-28.6,21.9c-12.4,0-18.6-7.9-28.6-21.9c-10.3-14.4-23-32.3-48.8-32.3c-6.8,0-12.4,5.5-12.4,12.4
		c0,6.8,5.5,12.4,12.4,12.4c12.4,0,18.6,7.9,28.6,21.9c10.3,14.4,23,32.3,48.8,32.3c25.7,0,38.5-17.9,48.8-32.3
		c10-14,16.3-21.9,28.6-21.9c12.4,0,18.6,7.9,28.6,21.9c10.3,14.4,23,32.3,48.8,32.3c25.7,0,38.5-17.9,48.8-32.3
		c10-14,16.3-21.9,28.6-21.9c12.4,0,18.6,7.9,28.6,21.9c10.3,14.4,23,32.3,48.8,32.3c25.7,0,38.5-17.9,48.8-32.3
		c10-14,16.3-21.9,28.7-21.9c12.4,0,18.7,7.9,28.7,21.9c10.3,14.4,23.1,32.3,48.8,32.3c6.8,0,12.4-5.5,12.4-12.4
		C690,1563,684.4,1557.5,677.6,1557.5z"/>
	<path d="M473.9,1650.8c10.3,14.4,23,32.3,48.8,32.3c25.7,0,38.5-17.9,48.8-32.3c10-14,16.3-21.9,28.7-21.9
		c12.4,0,18.7,7.9,28.7,21.9c10.3,14.4,23.1,32.3,48.8,32.3c6.8,0,12.4-5.5,12.4-12.4c0-6.8-5.5-12.4-12.4-12.4
		c-12.4,0-18.7-7.9-28.7-21.9c-10.3-14.4-23.1-32.3-48.8-32.3c-25.7,0-38.5,17.9-48.8,32.3c-10,14-16.3,21.9-28.7,21.9
		c-12.4,0-18.6-7.9-28.6-21.9c-10.3-14.4-23-32.3-48.8-32.3c-25.7,0-38.5,17.9-48.8,32.3c-10,14-16.3,21.9-28.6,21.9
		c-12.4,0-18.6-7.9-28.6-21.9c-10.3-14.4-23-32.3-48.8-32.3c-25.7,0-38.5,17.9-48.8,32.3c-10,14-16.3,21.9-28.6,21.9
		c-12.4,0-18.6-7.9-28.6-21.9c-10.3-14.4-23-32.3-48.8-32.3c-6.8,0-12.4,5.5-12.4,12.4s5.5,12.4,12.4,12.4
		c12.4,0,18.6,7.9,28.6,21.9c10.3,14.4,23,32.3,48.8,32.3c25.7,0,38.5-17.9,48.8-32.3c10-14,16.3-21.9,28.6-21.9
		c12.4,0,18.6,7.9,28.6,21.9c10.3,14.4,23,32.3,48.8,32.3c25.7,0,38.5-17.9,48.8-32.3c10-14,16.3-21.9,28.6-21.9
		C457.7,1628.9,464,1636.8,473.9,1650.8z"/>
</g>
<g>
	<path d="M926.7,427.3l8.5,70.1l15.9-70.1h32.9l13.8,70.1l9.6-70.1h24.4l-15.9,97.7H983l-17-71.3L947.9,525H915l-17-97.7H926.7z"/>
	<path d="M1069.1,427.3V525h-27.7v-97.7H1069.1z"/>
	<path d="M1124.3,427.3l33.1,72.2v-72.2h24.4V525h-38.3l-32.9-73.3V525h-24.4v-97.7H1124.3z"/>
	<path d="M1237.1,427.3l33.1,72.2v-72.2h24.4V525h-38.3l-32.9-73.3V525h-24.4v-97.7H1237.1z"/>
	<path d="M1386,427.3v20.1h-46.7v19.2h43.6v20.3h-43.6v19h46.7V525h-74.4v-97.7H1386z"/>
	<path d="M1444.4,427.3c0.2,0.2,0.4,0.3,0.6,0.3c0.2,0,0.4,0,0.6,0c0.2,0,0.4,0,0.6,0c0.2,0,0.5,0,0.7,0c4.6,0.1,9,0.6,13.2,1.5
		c4.2,0.9,8.2,2.2,12.1,3.8c3.8,1.7,6.6,4.3,8.6,7.6c1.9,3.4,2.9,7.6,2.9,12.6c0,4-0.6,7.4-1.7,10.3c-1.1,2.9-2.9,5.3-5.2,7.1
		c-2.3,1.8-4.8,3.3-7.6,4.5c-2.8,1.2-5.8,2-8.9,2.6c4.8,0.2,8.6,1.1,11.6,2.7c3,1.6,5,4,6.2,7c1.2,3.1,2.1,6.3,2.9,9.6
		c0.8,3.3,1.3,6.8,1.7,10.4c0,0.1,0,0.2,0,0.3c0,0.1,0,0.2,0,0.3c0,0.1,0,0.2,0,0.3c0,0.1,0,0.2,0.1,0.3c0.2,1.4,0.3,2.9,0.5,4.4
		c0.1,1.5,0.3,3,0.5,4.5c0.2,1.4,0.4,2.8,0.8,4.1c0.4,1.3,0.8,2.5,1.2,3.7h-29.7c-0.4-0.7-0.7-1.6-0.9-2.6c-0.2-1-0.4-2.1-0.6-3.2
		c-0.1-1.2-0.2-2.4-0.3-3.6c-0.1-1.2-0.2-2.5-0.3-3.7c0-0.2,0-0.3,0-0.4c0-0.1,0-0.2,0-0.4c-0.1-0.1-0.1-0.2-0.1-0.3
		c0-0.1,0-0.2,0-0.3c0-0.3,0-0.5,0-0.8c0-0.3,0-0.5,0-0.8c-0.2-2.6-0.5-5.1-0.9-7.5c-0.5-2.4-1-4.7-1.8-6.8
		c-0.7-2.2-1.9-3.8-3.6-4.9c-1.7-1.1-3.9-1.6-6.5-1.6l-12.7-0.3V525h-27.7v-97.7H1444.4z M1428.5,468.7h10.7
		c0.2,0.2,0.4,0.3,0.6,0.3c0.2,0,0.4,0,0.6,0c0.2,0,0.4,0,0.6,0c0.2,0,0.5,0,0.7,0c1.6-0.1,3.2-0.3,4.7-0.7c1.5-0.4,3-0.9,4.5-1.6
		c1.3-0.7,2.4-1.8,3.1-3.1c0.7-1.4,1.1-3.1,1.1-5.3c0-1.8-0.4-3.4-1.1-4.7c-0.7-1.4-1.8-2.5-3.2-3.4c-1.4-0.8-3.1-1.4-4.9-1.9
		c-1.8-0.4-3.7-0.7-5.8-0.7l-11.6-0.3V468.7z"/>
</g>
</svg>
